<mxfile host="app.diagrams.net" modified="2023-04-04T16:49:00.153Z" agent="Mozilla/5.0 (Windows NT 10.0; Win64; x64) AppleWebKit/537.36 (KHTML, like Gecko) Chrome/111.0.0.0 Safari/537.36 Edg/111.0.1661.62" etag="tmaMSXf-fBjGeI_GvBpa" version="21.1.4" type="github">
  <diagram id="C5RBs43oDa-KdzZeNtuy" name="Page-1">
    <mxGraphModel dx="1541" dy="1888" grid="1" gridSize="10" guides="1" tooltips="1" connect="1" arrows="1" fold="1" page="1" pageScale="1" pageWidth="827" pageHeight="1169" math="0" shadow="0">
      <root>
        <mxCell id="WIyWlLk6GJQsqaUBKTNV-0" />
        <mxCell id="WIyWlLk6GJQsqaUBKTNV-1" parent="WIyWlLk6GJQsqaUBKTNV-0" />
        <mxCell id="7IpqOZdlUDzkgkh_AJF7-11" value="" style="edgeStyle=orthogonalEdgeStyle;rounded=0;orthogonalLoop=1;jettySize=auto;html=1;" edge="1" parent="WIyWlLk6GJQsqaUBKTNV-1" source="7IpqOZdlUDzkgkh_AJF7-0" target="7IpqOZdlUDzkgkh_AJF7-1">
          <mxGeometry relative="1" as="geometry" />
        </mxCell>
        <mxCell id="7IpqOZdlUDzkgkh_AJF7-0" value="START" style="ellipse;whiteSpace=wrap;html=1;" vertex="1" parent="WIyWlLk6GJQsqaUBKTNV-1">
          <mxGeometry x="160" y="-50" width="120" height="80" as="geometry" />
        </mxCell>
        <mxCell id="7IpqOZdlUDzkgkh_AJF7-13" value="" style="edgeStyle=orthogonalEdgeStyle;rounded=0;orthogonalLoop=1;jettySize=auto;html=1;" edge="1" parent="WIyWlLk6GJQsqaUBKTNV-1" source="7IpqOZdlUDzkgkh_AJF7-1" target="7IpqOZdlUDzkgkh_AJF7-12">
          <mxGeometry relative="1" as="geometry" />
        </mxCell>
        <mxCell id="7IpqOZdlUDzkgkh_AJF7-1" value="INPUT&amp;nbsp;&lt;br&gt;Initialize waiting time &amp;amp; turnaround time with length n and values to 0" style="shape=parallelogram;perimeter=parallelogramPerimeter;whiteSpace=wrap;html=1;fixedSize=1;" vertex="1" parent="WIyWlLk6GJQsqaUBKTNV-1">
          <mxGeometry x="37.5" y="60" width="365" height="80" as="geometry" />
        </mxCell>
        <mxCell id="7IpqOZdlUDzkgkh_AJF7-8" value="" style="edgeStyle=orthogonalEdgeStyle;rounded=0;orthogonalLoop=1;jettySize=auto;html=1;" edge="1" parent="WIyWlLk6GJQsqaUBKTNV-1" source="7IpqOZdlUDzkgkh_AJF7-2" target="7IpqOZdlUDzkgkh_AJF7-4">
          <mxGeometry relative="1" as="geometry" />
        </mxCell>
        <mxCell id="7IpqOZdlUDzkgkh_AJF7-2" value="Calculate turnaround times as the sum of the waiting_time and the burst_time of the process." style="rounded=0;whiteSpace=wrap;html=1;" vertex="1" parent="WIyWlLk6GJQsqaUBKTNV-1">
          <mxGeometry x="70" y="420" width="300" height="96" as="geometry" />
        </mxCell>
        <mxCell id="7IpqOZdlUDzkgkh_AJF7-6" value="" style="edgeStyle=orthogonalEdgeStyle;rounded=0;orthogonalLoop=1;jettySize=auto;html=1;" edge="1" parent="WIyWlLk6GJQsqaUBKTNV-1" source="7IpqOZdlUDzkgkh_AJF7-3" target="7IpqOZdlUDzkgkh_AJF7-2">
          <mxGeometry relative="1" as="geometry" />
        </mxCell>
        <mxCell id="7IpqOZdlUDzkgkh_AJF7-3" value="Calculate waiting times by adding the waiting_time, burst_time, and arrival_time differences between the current and previous processes." style="rounded=0;whiteSpace=wrap;html=1;" vertex="1" parent="WIyWlLk6GJQsqaUBKTNV-1">
          <mxGeometry x="70.01" y="280" width="300" height="100" as="geometry" />
        </mxCell>
        <mxCell id="7IpqOZdlUDzkgkh_AJF7-10" value="" style="edgeStyle=orthogonalEdgeStyle;rounded=0;orthogonalLoop=1;jettySize=auto;html=1;" edge="1" parent="WIyWlLk6GJQsqaUBKTNV-1" source="7IpqOZdlUDzkgkh_AJF7-4" target="7IpqOZdlUDzkgkh_AJF7-9">
          <mxGeometry relative="1" as="geometry" />
        </mxCell>
        <mxCell id="7IpqOZdlUDzkgkh_AJF7-4" value="OUTPUT&lt;br&gt;Display process_id, arrival_time, burst_time, waiting_time and turnaround time in a table." style="shape=parallelogram;perimeter=parallelogramPerimeter;whiteSpace=wrap;html=1;fixedSize=1;" vertex="1" parent="WIyWlLk6GJQsqaUBKTNV-1">
          <mxGeometry x="41.88" y="560" width="358.12" height="80" as="geometry" />
        </mxCell>
        <mxCell id="7IpqOZdlUDzkgkh_AJF7-9" value="STOP" style="ellipse;whiteSpace=wrap;html=1;" vertex="1" parent="WIyWlLk6GJQsqaUBKTNV-1">
          <mxGeometry x="160.94" y="700" width="120" height="80" as="geometry" />
        </mxCell>
        <mxCell id="7IpqOZdlUDzkgkh_AJF7-15" value="" style="edgeStyle=orthogonalEdgeStyle;rounded=0;orthogonalLoop=1;jettySize=auto;html=1;" edge="1" parent="WIyWlLk6GJQsqaUBKTNV-1" source="7IpqOZdlUDzkgkh_AJF7-12" target="7IpqOZdlUDzkgkh_AJF7-3">
          <mxGeometry relative="1" as="geometry" />
        </mxCell>
        <mxCell id="7IpqOZdlUDzkgkh_AJF7-12" value="Create process objects (process ID, arrival time and burst time)" style="shape=parallelogram;perimeter=parallelogramPerimeter;whiteSpace=wrap;html=1;fixedSize=1;" vertex="1" parent="WIyWlLk6GJQsqaUBKTNV-1">
          <mxGeometry x="41.88" y="170" width="356.25" height="80" as="geometry" />
        </mxCell>
      </root>
    </mxGraphModel>
  </diagram>
</mxfile>
